<svg width="147" height="64" viewBox="0 0 147 64" fill="none" xmlns="http://www.w3.org/2000/svg">
    <path d="M72.1986 56.1144V38.9896H68.4756V56.3618H58.0671V38.9896H68.4756C68.4756 37.0415 66.9109 35.4768 66.0389 35.4768H58.0671C56.0138 35.4768 54.344 37.1157 54.344 39.1999V56.1144V56.3556H51.9753V59.8375H74.5982V56.3556H72.1986V56.1144Z" fill="white"/>
<path d="M82.4958 35.4706H78.7727V47.4128C78.7727 49.5032 80.4425 51.1359 82.4958 51.1359H93.6711V56.3556H79.3973V59.8375H93.6711C95.7244 59.8375 97.3942 58.1676 97.3942 56.1144V54.828C97.3942 52.7748 95.7244 51.105 93.6711 51.105V47.6602H82.4958V35.4706Z" fill="white"/>
<path d="M93.6711 47.654C95.7244 47.654 97.3942 45.9842 97.3942 43.931V35.4706H93.6711V47.654Z" fill="white"/>
<path d="M105.156 35.4706H102.125V59.8375H105.156V35.4706Z" fill="white"/>
<path d="M124.334 45.9224V45.9162H119.776L124.334 35.4953L120.431 35.4768L115.867 45.9224H113.616V35.4706H109.893V59.8375H113.616V49.398H124.167V59.8375H127.89V49.6392C127.89 47.6045 126.307 46.0089 124.334 45.9224Z" fill="white"/>
<path d="M143.036 35.4706C141.118 35.4706 139.554 37.0353 139.554 38.9524H147V35.4706H143.036Z" fill="white"/>
<path d="M132.386 35.4706H128.385V38.9524H135.831V38.9153C135.831 37.0043 134.297 35.4706 132.386 35.4706Z" fill="white"/>
<path d="M139.554 38.9524H135.831V59.8374H139.554V38.9524Z" fill="white"/>
<path d="M8.88807 0.0087302L22.2095 0.590073L29.5752 3.63284C32.0613 4.65946 34.0404 6.57048 35.1536 9.01335C36.273 11.4624 37.782 13.6455 39.5879 15.5194L38.1407 15.4576C28.9629 15.0556 22.7042 24.623 26.7427 32.8731L27.2931 34.0048C24.8997 33.1328 22.3393 32.6443 19.7109 32.601C17.0269 32.5577 14.4788 31.5063 12.5493 29.6386L6.57508 23.8747L0.879157 12.2416C-1.95952 6.44678 2.43765 -0.275756 8.88807 0.0087302Z" fill="url(#paint0_linear_1379_253)"/>
<path d="M43.8242 36.59C46.3654 36.59 48.4254 34.5299 48.4254 31.9887C48.4254 29.4475 46.3654 27.3875 43.8242 27.3875C41.283 27.3875 39.2229 29.4475 39.2229 31.9887C39.2229 34.5299 41.283 36.59 43.8242 36.59Z" fill="#839DB1"/>
<path d="M24.5349 0.286987L30.0205 2.5505C32.7665 3.68226 34.9805 5.81591 36.2174 8.52472C39.8539 16.4903 47.8319 21.574 56.5891 21.506C60.2194 21.475 63.5899 19.6382 65.5752 16.6017C69.6507 10.3677 65.3958 2.06811 57.9559 1.74034L24.5349 0.286987Z" fill="white"/>
<path d="M7.47192 26.3546L11.7392 30.4735C13.879 32.5391 16.7177 33.7142 19.6925 33.7574C28.4497 33.8997 36.304 39.175 39.7426 47.2272C41.1712 50.5607 40.831 54.3889 38.8458 57.4255C34.7702 63.6594 25.4564 63.0781 22.1786 56.3927L7.47192 26.3546Z" fill="white"/>
<defs>
<linearGradient id="paint0_linear_1379_253" x1="33.5104" y1="24.782" x2="1.42502" y2="3.78537" gradientUnits="userSpaceOnUse">
<stop stop-color="#849EB2"/>
<stop offset="0.1284" stop-color="#82A1B5"/>
<stop offset="0.281" stop-color="#7AA8BE"/>
<stop offset="0.4451" stop-color="#69B3CC"/>
<stop offset="0.558" stop-color="#56BCD8"/>
<stop offset="0.7553" stop-color="#B8DEED"/>
<stop offset="0.9211" stop-color="#ECF6FB"/>
<stop offset="1" stop-color="white"/>
</linearGradient>
</defs>
</svg>
