<svg width="68" height="68" viewBox="0 0 68 68" fill="none" xmlns="http://www.w3.org/2000/svg">
<g clip-path="url(#clip0_15_197)">
<path d="M11.3333 22.6668C11.3333 19.661 12.5274 16.7784 14.6528 14.653C16.7782 12.5275 19.6609 11.3335 22.6667 11.3335H45.3333C48.3391 11.3335 51.2218 12.5275 53.3472 14.653C55.4726 16.7784 56.6667 19.661 56.6667 22.6668V45.3335C56.6667 48.3393 55.4726 51.222 53.3472 53.3474C51.2218 55.4728 48.3391 56.6668 45.3333 56.6668H22.6667C19.6609 56.6668 16.7782 55.4728 14.6528 53.3474C12.5274 51.222 11.3333 48.3393 11.3333 45.3335V22.6668Z" stroke="#272929" stroke-width="2.83333" stroke-linecap="round" stroke-linejoin="round"/>
<path d="M25.5 34C25.5 36.2543 26.3955 38.4163 27.9896 40.0104C29.5837 41.6045 31.7457 42.5 34 42.5C36.2543 42.5 38.4163 41.6045 40.0104 40.0104C41.6045 38.4163 42.5 36.2543 42.5 34C42.5 31.7457 41.6045 29.5837 40.0104 27.9896C38.4163 26.3955 36.2543 25.5 34 25.5C31.7457 25.5 29.5837 26.3955 27.9896 27.9896C26.3955 29.5837 25.5 31.7457 25.5 34Z" stroke="#272929" stroke-width="2.83333" stroke-linecap="round" stroke-linejoin="round"/>
<path d="M46.75 21.25V21.2783" stroke="#272929" stroke-width="2.83333" stroke-linecap="round" stroke-linejoin="round"/>
</g>
<defs>
<clipPath id="clip0_15_197">
<rect width="68" height="68" fill="white"/>
</clipPath>
</defs>
</svg>
