<svg width="71" height="66" viewBox="0 0 71 66" fill="none" xmlns="http://www.w3.org/2000/svg">
<path id="Vector" fill-rule="evenodd" clip-rule="evenodd" d="M19.2275 0H63.6035C67.6805 0 70.9999 3.35616 70.9999 7.47782V40.3782C70.9999 44.5 67.6805 47.8561 63.6035 47.8561H19.2275C15.1512 47.8561 11.8316 44.5 11.8316 40.3782V7.47782C11.8316 3.35616 15.1512 0 19.2275 0ZM63.6035 5.98215H19.2275C18.4112 5.98215 17.7486 6.65189 17.7486 7.47768V35.7095L25.9137 27.4572C27.9343 25.4116 31.2272 25.4116 33.2504 27.4572L36.8301 31.0674L47.8179 17.7339C48.8 16.5433 50.2377 15.8555 51.7701 15.8468C53.3113 15.8822 54.7462 16.5105 55.7376 17.6858L65.0829 28.7107V7.47782C65.0829 6.65203 64.4205 5.98215 63.6035 5.98215ZM8.00962 44.7119C9.53949 49.2762 13.7522 52.342 18.4882 52.342H61.4354L58.7702 60.9107C58.0155 63.8244 55.3233 65.8014 52.377 65.8014C51.802 65.8009 51.2294 65.7266 50.673 65.5802L4.92673 53.1941C1.39759 52.2101 -0.705841 48.5166 0.217182 44.954L7.39418 20.733V41.1258C7.39418 42.1428 7.54534 43.1593 7.90617 44.368L8.00962 44.7119ZM32.5405 14.9545C32.5405 18.2536 29.8873 20.9367 26.624 20.9367C23.3608 20.9367 20.707 18.2535 20.707 14.9545C20.707 11.6556 23.3607 8.9724 26.624 8.9724C29.8873 8.9724 32.5405 11.6555 32.5405 14.9545Z" fill="#A3A3A3"/>
</svg>
