<svg width="68" height="68" viewBox="0 0 68 68" fill="none" xmlns="http://www.w3.org/2000/svg">
<g clip-path="url(#clip0_15_205)">
<path d="M59.5 22.4315V33.8612C54.3605 33.3513 49.4599 31.4391 45.3333 28.3333V41.0833C45.3326 44.5432 44.3572 47.9329 42.519 50.864C40.6807 53.7952 38.054 56.1492 34.9397 57.6565C31.8254 59.1637 28.3495 59.7632 24.9102 59.3863C21.471 59.0093 18.2074 57.6712 15.4935 55.5252C12.7796 53.3792 10.7251 50.5121 9.56541 47.2524C8.40569 43.9926 8.18766 40.4722 8.9363 37.0943C9.68494 33.7164 11.37 30.6177 13.7983 28.1532C16.2267 25.6887 19.3002 23.9581 22.6667 23.1597V35.4167C21.7007 36.1411 20.936 37.1004 20.4452 38.2035C19.9543 39.3067 19.7535 40.5169 19.862 41.7195C19.9704 42.922 20.3844 44.0768 21.0647 45.0743C21.745 46.0718 22.669 46.8789 23.7489 47.4189C24.8288 47.9588 26.0289 48.2138 27.2351 48.1595C28.4412 48.1052 29.6135 47.7435 30.6406 47.1088C31.6677 46.474 32.5154 45.5872 33.1034 44.5327C33.6914 43.4781 34 42.2907 34 41.0833V8.5H45.5685C46.1585 11.9805 47.8164 15.1913 50.3126 17.6874C52.8087 20.1836 56.0195 21.8415 59.5 22.4315Z" stroke="#272929" stroke-width="2.83333" stroke-linecap="round" stroke-linejoin="round"/>
</g>
<defs>
<clipPath id="clip0_15_205">
<rect width="68" height="68" fill="white"/>
</clipPath>
</defs>
</svg>
